<svg width="22" height="18" viewBox="0 0 22 18" fill="none" xmlns="http://www.w3.org/2000/svg">
<path d="M2.75 1.6875H19.25V6.39844C19.8344 6.50391 20.4188 6.71484 20.9 7.06641V1.75781C20.9 0.808594 20.1438 0 19.25 0H2.75C1.82188 0 1.1 0.808594 1.1 1.75781V7.06641C1.54688 6.71484 2.13125 6.50391 2.75 6.39844V1.6875ZM3.7125 14.2031H2.8875C1.27188 14.2031 0 15.5391 0 17.1562C0 17.6484 0.34375 18 0.825 18C1.27188 18 1.65 17.6484 1.65 17.1562C1.65 16.4883 2.2 15.8906 2.8875 15.8906H3.7125C4.36562 15.8906 4.95 16.4883 4.95 17.1562C4.95 17.6484 5.29375 18 5.775 18C6.22188 18 6.6 17.6484 6.6 17.1562C6.6 15.5391 5.29375 14.2031 3.7125 14.2031ZM18.7 7.45312C17.1531 7.45312 15.95 8.71875 15.95 10.2656C15.95 11.8477 17.1531 13.0781 18.7 13.0781C20.2125 13.0781 21.45 11.8477 21.45 10.2656C21.45 8.71875 20.2125 7.45312 18.7 7.45312ZM18.7 11.3906C18.0813 11.3906 17.6 10.8984 17.6 10.2656C17.6 9.66797 18.0813 9.14062 18.7 9.14062C19.2844 9.14062 19.8 9.66797 19.8 10.2656C19.8 10.8984 19.2844 11.3906 18.7 11.3906ZM19.1125 14.2031H18.2875C16.6719 14.2031 15.4 15.5391 15.4 17.1562C15.4 17.6484 15.7438 18 16.225 18C16.6719 18 17.05 17.6484 17.05 17.1562C17.05 16.4883 17.6 15.8906 18.2875 15.8906H19.1125C19.7656 15.8906 20.35 16.4883 20.35 17.1562C20.35 17.6484 20.6938 18 21.175 18C21.6219 18 22 17.6484 22 17.1562C22 15.5391 20.6938 14.2031 19.1125 14.2031ZM3.3 13.0781C4.8125 13.0781 6.05 11.8477 6.05 10.2656C6.05 8.71875 4.8125 7.45312 3.3 7.45312C1.75313 7.45312 0.55 8.71875 0.55 10.2656C0.55 11.8477 1.75313 13.0781 3.3 13.0781ZM3.3 9.14062C3.88438 9.14062 4.4 9.66797 4.4 10.2656C4.4 10.8984 3.88438 11.3906 3.3 11.3906C2.68125 11.3906 2.2 10.8984 2.2 10.2656C2.2 9.66797 2.68125 9.14062 3.3 9.14062ZM8.25 10.2656C8.25 11.8477 9.45312 13.0781 11 13.0781C12.5125 13.0781 13.75 11.8477 13.75 10.2656C13.75 8.71875 12.5125 7.45312 11 7.45312C9.45312 7.45312 8.25 8.71875 8.25 10.2656ZM12.1 10.2656C12.1 10.8984 11.5844 11.3906 11 11.3906C10.3813 11.3906 9.9 10.8984 9.9 10.2656C9.9 9.66797 10.3813 9.14062 11 9.14062C11.5844 9.14062 12.1 9.66797 12.1 10.2656ZM11.4125 14.2031H10.5875C8.97188 14.2031 7.7 15.5391 7.7 17.1562C7.7 17.6484 8.04375 18 8.525 18C8.97188 18 9.35 17.6484 9.35 17.1562C9.35 16.4883 9.9 15.8906 10.5875 15.8906H11.4125C12.0656 15.8906 12.65 16.4883 12.65 17.1562C12.65 17.6484 12.9938 18 13.475 18C13.9219 18 14.3 17.6484 14.3 17.1562C14.3 15.5391 12.9938 14.2031 11.4125 14.2031Z" fill="#FFFFFF"/>
</svg>
