<svg  viewBox="0 0 23 18" fill="none" xmlns="http://www.w3.org/2000/svg">
<path d="M7.94531 12.0586C6.99609 12.0586 6.75 12.375 5.625 12.375C4.5 12.375 4.25391 12.0586 3.26953 12.0586C0.738281 12.0586 0 14.168 0 15.293V16.5938C0 17.4023 0.597656 18 1.40625 18H9.84375C10.6172 18 11.25 17.4023 11.25 16.5938V15.293C11.25 13.7812 10.1602 12.0586 7.94531 12.0586ZM9.5625 16.3125H1.6875V15.293C1.6875 14.8008 1.96875 13.7461 3.26953 13.7461C3.86719 13.7461 4.28906 14.0625 5.625 14.0625C6.92578 14.0625 7.34766 13.7461 7.94531 13.7461C9.24609 13.7461 9.5625 14.8008 9.5625 15.293V16.3125ZM5.625 11.25C7.48828 11.25 9 9.77344 9 7.875C9 6.01172 7.48828 4.5 5.625 4.5C3.72656 4.5 2.25 6.01172 2.25 7.875C2.25 9.77344 3.72656 11.25 5.625 11.25ZM5.625 6.1875C6.53906 6.1875 7.3125 6.96094 7.3125 7.875C7.3125 8.82422 6.53906 9.5625 5.625 9.5625C4.67578 9.5625 3.9375 8.82422 3.9375 7.875C3.9375 6.96094 4.67578 6.1875 5.625 6.1875ZM20.8125 0H7.3125C6.36328 0 5.625 0.808594 5.625 1.75781V3.375C5.94141 3.375 6.75 3.51562 7.3125 3.72656V1.6875H20.8125V12.9375H19.125V11.25C19.125 10.6523 18.5977 10.125 18 10.125H13.5C12.8672 10.125 12.375 10.6523 12.375 11.25V14.625H20.8125C21.7266 14.625 22.5 13.8516 22.5 12.9023V1.75781C22.5 0.808594 21.7266 0 20.8125 0ZM17.4375 12.9375H14.0625V11.8125H17.4375V12.9375Z" fill="#FFFFFF"/>
</svg>
