<svg width="18" height="18" viewBox="0 0 18 18" fill="none" xmlns="http://www.w3.org/2000/svg">
<mask id="path-1-inside-1" fill="white">
<path fill-rule="evenodd" clip-rule="evenodd" d="M1 0C0.447715 0 0 0.447715 0 1V8C0 8.55229 0.447715 9 1 9H7C7.55228 9 8 8.55229 8 8V1C8 0.447715 7.55228 0 7 0H1ZM1 11C0.447715 11 0 11.4477 0 12V17C0 17.5523 0.447715 18 1 18H7C7.55228 18 8 17.5523 8 17V12C8 11.4477 7.55228 11 7 11H1ZM10 1C10 0.447715 10.4477 0 11 0H17C17.5523 0 18 0.447715 18 1V5C18 5.55228 17.5523 6 17 6H11C10.4477 6 10 5.55228 10 5V1ZM11 8C10.4477 8 10 8.44772 10 9V17C10 17.5523 10.4477 18 11 18H17C17.5523 18 18 17.5523 18 17V9C18 8.44771 17.5523 8 17 8H11Z"/>
</mask>
<path d="M1.5 1C1.5 1.27614 1.27614 1.5 1 1.5V-1.5C-0.380712 -1.5 -1.5 -0.380712 -1.5 1H1.5ZM1.5 8V1H-1.5V8H1.5ZM1 7.5C1.27614 7.5 1.5 7.72386 1.5 8H-1.5C-1.5 9.38071 -0.380711 10.5 1 10.5V7.5ZM7 7.5H1V10.5H7V7.5ZM6.5 8C6.5 7.72386 6.72386 7.5 7 7.5V10.5C8.38071 10.5 9.5 9.38071 9.5 8H6.5ZM6.5 1V8H9.5V1H6.5ZM7 1.5C6.72386 1.5 6.5 1.27614 6.5 1H9.5C9.5 -0.380712 8.38071 -1.5 7 -1.5V1.5ZM1 1.5H7V-1.5H1V1.5ZM1.5 12C1.5 12.2761 1.27614 12.5 1 12.5V9.5C-0.380711 9.5 -1.5 10.6193 -1.5 12H1.5ZM1.5 17V12H-1.5V17H1.5ZM1 16.5C1.27614 16.5 1.5 16.7239 1.5 17H-1.5C-1.5 18.3807 -0.380712 19.5 1 19.5V16.5ZM7 16.5H1V19.5H7V16.5ZM6.5 17C6.5 16.7239 6.72386 16.5 7 16.5V19.5C8.38071 19.5 9.5 18.3807 9.5 17H6.5ZM6.5 12V17H9.5V12H6.5ZM7 12.5C6.72386 12.5 6.5 12.2761 6.5 12H9.5C9.5 10.6193 8.38071 9.5 7 9.5V12.5ZM1 12.5H7V9.5H1V12.5ZM11 -1.5C9.61929 -1.5 8.5 -0.380711 8.5 1H11.5C11.5 1.27614 11.2761 1.5 11 1.5V-1.5ZM17 -1.5H11V1.5H17V-1.5ZM19.5 1C19.5 -0.380712 18.3807 -1.5 17 -1.5V1.5C16.7239 1.5 16.5 1.27614 16.5 1H19.5ZM19.5 5V1H16.5V5H19.5ZM17 7.5C18.3807 7.5 19.5 6.38071 19.5 5H16.5C16.5 4.72386 16.7239 4.5 17 4.5V7.5ZM11 7.5H17V4.5H11V7.5ZM8.5 5C8.5 6.38071 9.61929 7.5 11 7.5V4.5C11.2761 4.5 11.5 4.72386 11.5 5H8.5ZM8.5 1V5H11.5V1H8.5ZM11.5 9C11.5 9.27614 11.2761 9.5 11 9.5V6.5C9.61929 6.5 8.5 7.61929 8.5 9H11.5ZM11.5 17V9H8.5V17H11.5ZM11 16.5C11.2761 16.5 11.5 16.7239 11.5 17H8.5C8.5 18.3807 9.61929 19.5 11 19.5V16.5ZM17 16.5H11V19.5H17V16.5ZM16.5 17C16.5 16.7239 16.7239 16.5 17 16.5V19.5C18.3807 19.5 19.5 18.3807 19.5 17H16.5ZM16.5 9V17H19.5V9H16.5ZM17 9.5C16.7239 9.5 16.5 9.27614 16.5 9H19.5C19.5 7.61929 18.3807 6.5 17 6.5V9.5ZM11 9.5H17V6.5H11V9.5Z" fill="#ffffff" mask="url(#path-1-inside-1)"/>
</svg>
