<svg width="21" height="18" viewBox="0 0 21 18" fill="none" xmlns="http://www.w3.org/2000/svg">
<path d="M15.75 7.36272V2.82254C15.75 2.21987 15.3398 1.69754 14.7656 1.45647L10.9922 0.0904018C10.6641 -0.0301339 10.2949 -0.0301339 9.9668 0.0904018L6.19336 1.45647C5.61914 1.69754 5.20898 2.21987 5.20898 2.82254V7.36272L0.943359 8.92969C0.369141 9.13058 0 9.69308 0 10.2958V14.5547C0 15.1172 0.287109 15.5993 0.779297 15.8404L4.83984 17.8493C5.25 18.0502 5.74219 18.0502 6.15234 17.8493L10.5 15.7199L14.8066 17.8493C15.2168 18.0502 15.709 18.0502 16.1191 17.8493L20.1797 15.8404C20.6719 15.5993 21 15.1172 21 14.5547V10.2958C21 9.69308 20.5898 9.13058 20.0156 8.92969L15.75 7.36272ZM10.9922 8.72879V4.79129L14.7656 3.54576V7.44308L10.9922 8.72879ZM6.23438 2.50112L10.5 0.934152L14.7656 2.50112L10.5 3.94754L6.23438 2.50112ZM6.23438 3.54576L10.0078 4.79129V8.72879L6.23438 7.44308V3.54576ZM5.00391 16.7645L1.02539 14.8359V11.0592L5.00391 12.6663V16.7645ZM1.02539 9.97433L5.49609 8.32701L9.92578 9.97433V10.0145L5.49609 11.7824L1.02539 9.97433ZM6.0293 12.6663L9.92578 11.0993V14.8359L6.0293 16.7645V12.6663ZM14.9297 16.7645L11.0332 14.8359V11.0993L14.9297 12.6663V16.7645ZM19.9336 14.8359L15.9961 16.7645V12.6663L19.9336 11.0592V14.8359ZM19.9336 9.97433L15.4629 11.7824L11.0332 10.0145V9.97433L15.4629 8.32701L19.9336 9.97433Z" fill="#FFFFFF"/>
</svg>
