<svg width="24" height="18" viewBox="0 0 24 18" fill="none" xmlns="http://www.w3.org/2000/svg">
<path d="M5.48438 10.0312C5.76562 10.3125 6.28125 10.3125 6.5625 10.0312L9 7.59375L12.9375 11.5781C13.2188 11.8594 13.7344 11.8594 14.0156 11.5781L19.1719 6.42188L20.5781 7.78125C21.2812 8.53125 22.5 8.01562 22.5 6.98438V2.25C22.5 1.875 22.125 1.5 21.75 1.5H17.0156C15.9844 1.5 15.4688 2.71875 16.2188 3.42188L17.5781 4.82812L13.5 8.95312L9.51562 4.96875C9.23438 4.6875 8.71875 4.6875 8.4375 4.96875L4.96875 8.4375C4.6875 8.71875 4.6875 9.23438 4.96875 9.51562L5.48438 10.0312ZM23.25 15.75H2.25V0.75C2.25 0.375 1.875 0 1.5 0H0.75C0.328125 0 0 0.375 0 0.75V16.5C0 17.3438 0.65625 18 1.5 18H23.25C23.625 18 24 17.6719 24 17.25V16.5C24 16.125 23.625 15.75 23.25 15.75Z" fill="#FFFFFF"/>
</svg>
