<svg width="21" height="18" viewBox="0 0 21 18" fill="none" xmlns="http://www.w3.org/2000/svg">
<path d="M20.1974 15.9823L16.0877 0.421512C16.0175 0.140504 15.7013 -0.035126 15.3852 0.035126L14.8583 0.17563C14.5773 0.245882 14.4368 0.491764 14.4368 0.772772C14.0504 1.01865 12.1887 1.51042 11.697 1.51042C11.5916 1.26454 11.3106 1.12403 11.0647 1.19428L10.6783 1.29966V1.12403C10.6783 0.52689 10.1514 0 9.27326 0H0.843024C0.491764 0 0 0.52689 0 1.12403V16.8605C0 17.4927 0.491764 17.9845 0.843024 17.9845H9.27326C10.1514 17.9845 10.6783 17.4927 10.6783 16.8605V4.07462L14.226 17.5981C14.2963 17.8791 14.6124 18.0548 14.9285 17.9845L15.4554 17.844C15.7364 17.7738 15.8769 17.5279 15.8769 17.2469C16.2633 17.001 18.125 16.5092 18.6168 16.5092C18.7222 16.7551 19.0032 16.8956 19.249 16.8253L19.8111 16.6848C20.0921 16.5795 20.2677 16.2985 20.1974 15.9823ZM4.49613 16.2985H1.68605V14.6124H4.49613V16.2985ZM4.49613 12.9264H1.68605V5.05814H4.49613V12.9264ZM4.49613 3.3721H1.68605V1.68605H4.49613V3.3721ZM8.99225 16.2985H6.18217V14.6124H8.99225V16.2985ZM8.99225 12.9264H6.18217V5.05814H8.99225V12.9264ZM8.99225 3.3721H6.18217V1.68605H8.99225V3.3721ZM15.4906 15.8769L12.0833 2.88033C12.6805 2.81008 14.226 2.42369 14.8232 2.14269L18.2304 15.1393C17.6332 15.2096 16.0877 15.5959 15.4906 15.8769Z" fill="#FFFFFF"/>
</svg>
