<svg width="23" height="18" viewBox="0 0 23 18" fill="none" xmlns="http://www.w3.org/2000/svg">
<path d="M12.9375 12.375H9.5625C9.24609 12.375 9 12.6562 9 12.9375V17.4375C9 17.7539 9.24609 18 9.5625 18H12.9375C13.2188 18 13.5 17.7539 13.5 17.4375V12.9375C13.5 12.6562 13.2188 12.375 12.9375 12.375ZM11.25 4.21875C9.52734 4.21875 8.15625 5.625 8.15625 7.3125C8.15625 9.03516 9.52734 10.4062 11.25 10.4062C12.9375 10.4062 14.3438 9.03516 14.3438 7.3125C14.3438 5.625 12.9375 4.21875 11.25 4.21875ZM12.9375 8.15625C12.9375 8.33203 12.7969 8.4375 12.6562 8.4375H10.9688C10.793 8.4375 10.6875 8.33203 10.6875 8.15625V5.90625C10.6875 5.76562 10.793 5.625 10.9688 5.625H11.5312C11.6719 5.625 11.8125 5.76562 11.8125 5.90625V7.3125H12.6562C12.7969 7.3125 12.9375 7.45312 12.9375 7.59375V8.15625ZM21.375 6.75H18V4.88672C18 4.5 17.7891 4.14844 17.4727 3.97266L11.8477 0.210938C11.6719 0.0703125 11.4609 0.0351562 11.25 0.0351562V0H11.2148C11.0039 0 10.793 0.0703125 10.6172 0.210938L4.99219 3.97266C4.67578 4.14844 4.5 4.5 4.5 4.88672V6.75H1.125C0.492188 6.75 0 7.27734 0 7.875V17.4375C0 17.7539 0.246094 18 0.5625 18H1.125C1.40625 18 1.6875 17.7539 1.6875 17.4375V8.4375H4.5V18H6.1875V5.20312L11.25 1.82812L16.3125 5.20312V18H18V8.4375H20.8125V17.4375C20.8125 17.7539 21.0586 18 21.375 18H21.9375C22.2188 18 22.5 17.7539 22.5 17.4375V7.875C22.5 7.27734 21.9727 6.75 21.375 6.75Z" fill="#FFFFFF"/>
</svg>
