<svg width="26" height="18" viewBox="0 0 26 18" fill="none" xmlns="http://www.w3.org/2000/svg">
<path d="M21.8571 7.71429C23.625 7.71429 25.0714 6.30804 25.0714 4.5C25.0714 2.73214 23.625 1.28571 21.8571 1.28571C20.0491 1.28571 18.6429 2.73214 18.6429 4.5C18.6429 6.30804 20.0491 7.71429 21.8571 7.71429ZM21.8571 3.21429C22.5402 3.21429 23.1429 3.81696 23.1429 4.5C23.1429 5.22321 22.5402 5.78571 21.8571 5.78571C21.1339 5.78571 20.5714 5.22321 20.5714 4.5C20.5714 3.81696 21.1339 3.21429 21.8571 3.21429ZM3.85714 7.71429C5.625 7.71429 7.07143 6.30804 7.07143 4.5C7.07143 2.73214 5.625 1.28571 3.85714 1.28571C2.04911 1.28571 0.642857 2.73214 0.642857 4.5C0.642857 6.30804 2.04911 7.71429 3.85714 7.71429ZM3.85714 3.21429C4.54018 3.21429 5.14286 3.81696 5.14286 4.5C5.14286 5.22321 4.54018 5.78571 3.85714 5.78571C3.13393 5.78571 2.57143 5.22321 2.57143 4.5C2.57143 3.81696 3.13393 3.21429 3.85714 3.21429ZM19.7679 11.692C18.6429 10.0848 16.5134 9.44196 14.625 10.0446C14.0625 10.2054 13.4598 10.2857 12.817 10.2857C12.2143 10.2857 11.6116 10.2054 11.0491 10.0446C9.16071 9.44196 6.99107 10.0446 5.90625 11.692C5.42411 12.4554 5.10268 13.3393 5.10268 14.3036V16.0714C5.10268 17.1562 5.98661 18 7.03125 18H18.6027C19.6875 18 20.5312 17.1562 20.5312 16.0714V14.3036C20.5714 13.3393 20.25 12.4554 19.7679 11.692ZM18.6429 16.0714H7.07143V14.3036C7.07143 12.817 8.23661 11.6116 9.68304 11.5714C10.6875 12.0134 11.7723 12.2143 12.8571 12.2143C13.9018 12.2143 14.9866 12.0134 15.9911 11.5714C17.4375 11.6116 18.6429 12.817 18.6429 14.3036V16.0714ZM22.3393 9H21.375C20.6518 9 20.0089 9.24107 19.4866 9.60268C20.0089 10.0045 20.4911 10.4866 20.8527 11.0491C21.0134 11.0089 21.1741 10.9286 21.3348 10.9286H22.2991C23.1027 10.9286 23.7455 11.6116 23.7455 12.375C23.7455 12.9375 24.1875 13.3393 24.7098 13.3393C25.2723 13.3393 25.6741 12.9375 25.6741 12.375C25.7143 10.5268 24.1875 9 22.3393 9ZM12.8571 9C15.308 9 17.3571 6.99107 17.3571 4.5C17.3571 2.04911 15.308 0 12.8571 0C10.3661 0 8.35714 2.04911 8.35714 4.5C8.35714 6.99107 10.3661 9 12.8571 9ZM12.8571 1.92857C14.2634 1.92857 15.4286 3.09375 15.4286 4.5C15.4286 5.94643 14.2634 7.07143 12.8571 7.07143C11.4107 7.07143 10.2857 5.94643 10.2857 4.5C10.2857 3.09375 11.4107 1.92857 12.8571 1.92857ZM6.1875 9.60268C5.66518 9.24107 5.02232 9 4.33929 9H3.375C1.48661 9 0 10.5268 0 12.375C0 12.9375 0.401786 13.3393 0.964286 13.3393C1.48661 13.3393 1.92857 12.9375 1.92857 12.375C1.92857 11.6116 2.57143 10.9286 3.375 10.9286H4.33929C4.5 10.9286 4.66071 11.0089 4.82143 11.0491C5.18304 10.4866 5.66518 10.0045 6.1875 9.60268Z" fill="#FFFFFF"/>
</svg>
