<svg width="18" height="24" viewBox="0 0 18 24" fill="none" xmlns="http://www.w3.org/2000/svg">
<path d="M18 22.5C18 22.4196 17.9598 22.3393 17.9196 22.2589L15.4286 15.4286L17.8393 8.51786C17.9196 8.23661 17.9598 7.95536 18 7.67411C18 7.43304 17.9196 7.15179 17.8393 6.87054L15.75 0.803571C15.5491 0.321428 15.067 -1.28207e-07 14.5446 -1.51038e-07L0.642857 -7.58705e-07C0.241072 -7.76267e-07 -1.22938e-08 0.281249 -2.63439e-08 0.602678C-2.98564e-08 0.683035 -3.3369e-08 0.763392 0.0401783 0.843749L2.57143 7.71429L0.120536 14.625C0.0401776 14.8661 -6.6211e-07 15.1473 -6.74404e-07 15.4286C-6.86698e-07 15.7098 0.0401776 15.9509 0.120536 16.2321L2.20982 22.2991C2.41071 22.7812 2.89286 23.1429 3.41518 23.1429L17.317 23.1429C17.7187 23.1429 18 22.8214 18 22.5ZM15.6295 9L13.8214 14.1429L2.33036 14.1429L4.13839 9L15.6295 9ZM2.45089 1.92857L14.0625 1.92857L15.8705 7.07143L4.37946 7.07143L4.37946 7.03125L2.45089 1.92857ZM3.89732 21.2143L2.08929 16.0714L13.5804 16.0714L15.5089 21.2143L3.89732 21.2143Z" fill="#FFFFFF"/>
</svg>
