<svg width="16" height="16" viewBox="0 0 16 16" fill="none" xmlns="http://www.w3.org/2000/svg">
<path d="M0.25 8C0.25 12.2812 3.71875 15.75 8 15.75C12.2812 15.75 15.75 12.2812 15.75 8C15.75 3.71875 12.2812 0.25 8 0.25C3.71875 0.25 0.25 3.71875 0.25 8ZM14.25 8C14.25 11.4688 11.4375 14.25 8 14.25C4.53125 14.25 1.75 11.4688 1.75 8C1.75 4.5625 4.53125 1.75 8 1.75C11.4375 1.75 14.25 4.5625 14.25 8ZM10.875 8.28125C11.0312 8.125 11.0312 7.90625 10.875 7.75L7.03125 3.90625C6.90625 3.75 6.65625 3.75 6.5 3.90625L5.8125 4.625C5.65625 4.75 5.65625 5 5.8125 5.15625L8.65625 8L5.8125 10.875C5.65625 11.0312 5.65625 11.25 5.8125 11.4062L6.5 12.125C6.65625 12.25 6.90625 12.25 7.03125 12.125L10.875 8.28125Z" fill="#F28080"/>
</svg>
